<svg width="258" height="40" viewBox="0 0 258 40" fill="none" xmlns="http://www.w3.org/2000/svg">
<path fill-rule="evenodd" clip-rule="evenodd" d="M62.5 36.5001C53.4 36.5001 48 29.7001 48 20.1001C48 10.6001 53.5 3.6001 62.5 3.6001C70.4 3.6001 75.2 8.0001 76.1 14.7001H69.7C68.9 10.9001 66.4 8.5001 62.6 8.5001H62.2C57.3 8.5001 54.3 13.5001 54.3 20.1001C54.3 26.6001 57.3 31.6001 62.2 31.6001H62.6C66.8 31.6001 69.2 28.6001 69.7 25.5001H76.1C75.6 31.5001 71 36.5001 62.5 36.5001Z" fill="white"/>
<path fill-rule="evenodd" clip-rule="evenodd" d="M89.5001 25.9999L88.0001 26.3999C86.9001 26.6999 86.0001 26.9999 85.4001 27.5999C84.9001 27.9999 84.6001 28.6999 84.6001 29.4999C84.6001 30.2999 84.9001 30.8999 85.3001 31.2999C85.9001 31.8999 86.7001 32.1999 87.7001 32.1999C90.1001 32.1999 93.1001 30.5999 93.1001 26.2999V23.4999C92.5001 24.9999 91.0001 25.6999 89.5001 25.9999ZM98.7001 20.7999V29.7999C98.7001 30.8999 98.8001 31.1999 99.9001 31.1999C100.3 31.1999 100.7 31.1999 101 31.0999V35.8999C101 35.8999 99.1001 36.1999 97.6001 36.1999C95.0001 36.1999 94.0001 34.9999 94.0001 32.5999V32.3999L93.4001 32.2999C92.1001 35.1999 88.7001 36.4999 85.9001 36.4999C84.0001 36.4999 82.3001 35.9999 81.0001 34.9999C79.5001 33.8999 78.6001 32.1999 78.6001 29.8999C78.6001 27.6999 79.5001 25.8999 81.1001 24.6999C82.4001 23.7999 84.1001 23.1999 86.3001 22.8999L88.0001 22.5999C91.0001 22.1999 92.8001 21.5999 92.8001 19.6999C92.8001 17.9999 91.4001 17.0999 89.1001 17.0999C86.8001 17.0999 85.2001 18.3999 85.0001 20.7999H79.1001C79.2001 15.7999 83.2001 12.8999 89.1001 12.8999C95.2001 12.8999 98.7001 14.9999 98.7001 20.7999Z" fill="white"/>
<path fill-rule="evenodd" clip-rule="evenodd" d="M113.9 18.9C111 18.9 109.2 20.3 109.2 24V35.2H103.2V13H109V13.8C109 15 108.9 15.7 108.4 17L109.1 17.2C110.3 13.5 112.6 12.8 116.1 12.8C116.5 12.8 117 12.8 117.2 12.8V19.2C116.2 19.1 114.9 18.9 113.9 18.9Z" fill="white"/>
<path fill-rule="evenodd" clip-rule="evenodd" d="M138.4 8.5H129.1V35.3H123V8.5H113.8V3.5H138.4V8.5Z" fill="white"/>
<path fill-rule="evenodd" clip-rule="evenodd" d="M144.4 18.9C141.5 18.9 139.7 20.3 139.7 24V35.2H133.7V13H139.5V13.8C139.5 15 139.4 15.7 138.9 17L139.6 17.2C140.8 13.5 143.1 12.8 146.6 12.8C147 12.8 147.5 12.8 147.7 12.8V19.2C146.7 19.1 145.4 18.9 144.4 18.9Z" fill="white"/>
<path fill-rule="evenodd" clip-rule="evenodd" d="M161 26L159.5 26.4C158.4 26.7 157.5 27 156.9 27.6C156.4 28 156.1 28.7 156.1 29.5C156.1 30.3 156.4 30.9 156.8 31.3C157.4 31.9 158.2 32.2 159.2 32.2C161.6 32.2 164.6 30.6 164.6 26.3V23.5C164 25 162.5 25.7 161 26ZM170.2 20.8V29.8C170.2 30.9 170.3 31.2 171.4 31.2C171.8 31.2 172.2 31.2 172.5 31.1V35.9C172.5 35.9 170.6 36.2 169.1 36.2C166.5 36.2 165.5 35 165.5 32.6V32.4L164.9 32.3C163.6 35.2 160.2 36.5 157.4 36.5C155.6 36.5 153.9 36 152.6 35C151.1 33.9 150.2 32.2 150.2 29.9C150.2 27.7 151.1 25.9 152.7 24.7C154 23.8 155.7 23.2 157.9 22.9L159.7 22.7C162.7 22.3 164.5 21.7 164.5 19.8C164.5 18.1 163.1 17.2 160.8 17.2C158.5 17.2 156.9 18.5 156.7 20.9H150.8C150.9 15.9 154.9 13 160.8 13C166.8 12.9 170.2 15 170.2 20.8Z" fill="white"/>
<path fill-rule="evenodd" clip-rule="evenodd" d="M206.4 12.8999L199.9 35.2999H193.2L190.8 25.4999C190.3 23.3999 190 21.3999 189.8 19.4999H189.1C189 21.4999 188.6 23.3999 188.1 25.4999L185.7 35.2999H178.9L172.4 12.8999H178.5L181.5 23.4999C182 25.3999 182.3 27.2999 182.4 29.1999H183.1C183.3 27.3999 183.7 25.3999 184.2 23.4999L186.7 12.8999H192.3L194.7 23.6999C195.1 25.4999 195.6 27.5999 195.8 29.1999H196.5C196.6 27.4999 196.9 25.3999 197.5 23.4999L200.4 12.8999H206.4V12.8999Z" fill="white"/>
<mask id="mask0_121_2" style="mask-type:alpha" maskUnits="userSpaceOnUse" x="0" y="0" width="258" height="40">
<path fill-rule="evenodd" clip-rule="evenodd" d="M0 40H258V0H0V40Z" fill="white"/>
</mask>
<g mask="url(#mask0_121_2)">
<path fill-rule="evenodd" clip-rule="evenodd" d="M209.9 35.2999H215.8V2.3999H209.9V35.2999Z" fill="white"/>
</g>
<mask id="mask1_121_2" style="mask-type:alpha" maskUnits="userSpaceOnUse" x="0" y="0" width="258" height="40">
<path fill-rule="evenodd" clip-rule="evenodd" d="M0 40H258V0H0V40Z" fill="white"/>
</mask>
<g mask="url(#mask1_121_2)">
<path fill-rule="evenodd" clip-rule="evenodd" d="M234.2 22.1999C233.9 19.3999 232.3 17.0999 229.4 17.0999H229C226.1 17.0999 224.2 19.3999 224 22.1999H234.2V22.1999ZM239.9 24.7999V25.8999L224 25.9999V26.0999C224.1 29.3999 226.2 31.7999 229.4 31.7999H229.6C232.2 31.7999 234.1 29.9999 234.4 28.0999H240.4C239.6 32.9999 235 36.3999 229.3 36.3999C222.3 36.3999 218.1 31.5999 218.1 24.6999C218.1 17.3999 222.6 12.8999 229.1 12.8999C235.7 12.8999 239.9 17.4999 239.9 24.7999Z" fill="white"/>
</g>
<mask id="mask2_121_2" style="mask-type:alpha" maskUnits="userSpaceOnUse" x="0" y="0" width="258" height="40">
<path fill-rule="evenodd" clip-rule="evenodd" d="M0 40H258V0H0V40Z" fill="white"/>
</mask>
<g mask="url(#mask2_121_2)">
<path fill-rule="evenodd" clip-rule="evenodd" d="M254.6 18.9C251.7 18.9 249.9 20.3 249.9 24V35.2H243.9V13H249.7V13.8C249.7 15 249.6 15.7 249.1 17L249.8 17.2C251 13.5 253.3 12.8 256.8 12.8C257.2 12.8 257.7 12.8 257.9 12.8V19.2C256.9 19.1 255.7 18.9 254.6 18.9Z" fill="white"/>
</g>
<mask id="mask3_121_2" style="mask-type:alpha" maskUnits="userSpaceOnUse" x="0" y="0" width="258" height="40">
<path fill-rule="evenodd" clip-rule="evenodd" d="M0 40H258V0H0V40Z" fill="white"/>
</mask>
<g mask="url(#mask3_121_2)">
<path fill-rule="evenodd" clip-rule="evenodd" d="M3.20013 20.6L5.90013 17.9C6.50013 17.3 7.40013 16.9 8.20013 16.9H14.6001C15.9001 16.9 16.9001 15.8 16.9001 14.6V8.2C16.9001 7.3 17.2001 6.5 17.9001 5.9L20.6001 3.2C21.3001 2.5 21.4001 1.3 20.7001 0.6C20.0001 -0.2 18.8001 -0.2 18.0001 0.6L15.3001 3.3C14.7001 3.9 13.8001 4.3 13.0001 4.3H6.60013C5.30013 4.3 4.30013 5.4 4.30013 6.6V7.1V13C4.30013 13.9 4.00013 14.7 3.30013 15.3L0.600131 18C-0.0998693 18.7 -0.19987 19.9 0.50013 20.6C1.20013 21.4 2.40013 21.4 3.20013 20.6Z" fill="white"/>
</g>
<mask id="mask4_121_2" style="mask-type:alpha" maskUnits="userSpaceOnUse" x="0" y="0" width="258" height="40">
<path fill-rule="evenodd" clip-rule="evenodd" d="M0 40H258V0H0V40Z" fill="white"/>
</mask>
<g mask="url(#mask4_121_2)">
<path fill-rule="evenodd" clip-rule="evenodd" d="M36.6998 18.2L33.9998 20.9C33.3998 21.5 32.4998 21.9 31.6998 21.9H25.2998C23.9998 21.9 22.9998 22.9 22.9998 24.2V24.7V30.6C22.9998 31.5 22.6998 32.3 21.9998 32.9L19.2998 35.6C18.5998 36.3 18.4998 37.5 19.1998 38.2C19.8998 39 21.0998 39 21.8998 38.2L24.5998 35.5C25.1998 34.9 26.0998 34.5 26.8998 34.5H33.2998C34.5998 34.5 35.5998 33.4 35.5998 32.2V25.9C35.5998 25 35.8998 24.2 36.5998 23.6L39.2998 20.9C39.9998 20.1 40.0998 19 39.3998 18.2C38.6998 17.5 37.4998 17.5 36.6998 18.2Z" fill="white"/>
<path fill-rule="evenodd" clip-rule="evenodd" d="M26.6001 17.2999H33.1001C34.4001 17.2999 35.5001 16.1999 35.5001 14.8999V8.2999C35.5001 7.3999 35.9001 6.5999 36.5001 5.8999L39.2001 3.1999C39.9001 2.4999 40.0001 1.2999 39.3001 0.499902C38.6001 -0.300098 37.3001 -0.300098 36.6001 0.499902L33.8001 3.2999C33.2001 3.8999 32.3001 4.2999 31.4001 4.2999H25.0001C23.7001 4.2999 22.6001 5.3999 22.6001 6.6999V7.1999V13.1999C22.6001 14.0999 22.2001 14.8999 21.6001 15.5999L15.6001 21.5999C15.0001 22.1999 14.1001 22.5999 13.2001 22.5999H6.70013C5.40013 22.5999 4.30013 23.6999 4.30013 24.9999V25.4999V31.4999C4.30013 32.3999 3.90013 33.1999 3.30013 33.8999L0.600131 36.5999C-0.0998693 37.2999 -0.19987 38.4999 0.50013 39.2999C1.20013 40.0999 2.50013 40.0999 3.20013 39.2999L6.00013 36.4999C6.60013 35.8999 7.50013 35.4999 8.40013 35.4999H14.9001C16.2001 35.4999 17.3001 34.3999 17.3001 33.0999V26.6999C17.3001 25.7999 17.7001 24.9999 18.3001 24.2999L24.3001 18.2999C24.9001 17.6999 25.8001 17.2999 26.6001 17.2999Z" fill="white"/>
</g>
</svg>
