<svg width="41" height="24" viewBox="0 0 41 24" fill="none" xmlns="http://www.w3.org/2000/svg">
<path d="M20.33 5.02C19.0642 5.02 17.8268 5.39535 16.7744 6.09859C15.7219 6.80184 14.9016 7.80138 14.4172 8.97083C13.9328 10.1403 13.806 11.4271 14.053 12.6686C14.2999 13.9101 14.9095 15.0504 15.8045 15.9455C16.6996 16.8405 17.8399 17.4501 19.0814 17.697C20.3229 17.944 21.6097 17.8172 22.7792 17.3328C23.9486 16.8484 24.9482 16.0281 25.6514 14.9756C26.3546 13.9232 26.73 12.6858 26.73 11.42C26.73 9.72261 26.0557 8.09475 24.8555 6.89452C23.6553 5.69428 22.0274 5.02 20.33 5.02V5.02ZM20.33 13.5C19.9186 13.5 19.5165 13.378 19.1744 13.1495C18.8324 12.9209 18.5658 12.5961 18.4083 12.216C18.2509 11.8359 18.2097 11.4177 18.29 11.0142C18.3702 10.6107 18.5683 10.2401 18.8592 9.94922C19.1501 9.65832 19.5207 9.46022 19.9242 9.37997C20.3277 9.29971 20.7459 9.3409 21.126 9.49833C21.5061 9.65576 21.8309 9.92236 22.0595 10.2644C22.288 10.6065 22.41 11.0086 22.41 11.42C22.41 11.9717 22.1909 12.5007 21.8008 12.8908C21.4107 13.2809 20.8817 13.5 20.33 13.5V13.5ZM20.33 19.32C20.7418 19.318 21.1449 19.4383 21.4883 19.6657C21.8317 19.893 22.0998 20.2172 22.2588 20.5971C22.4178 20.977 22.4604 21.3955 22.3812 21.7996C22.3021 22.2038 22.1048 22.5753 21.8143 22.8672C21.5238 23.1591 21.1532 23.3582 20.7495 23.4393C20.3457 23.5203 19.927 23.4797 19.5463 23.3226C19.1657 23.1655 18.8402 22.8989 18.6112 22.5566C18.3823 22.2144 18.26 21.8118 18.26 21.4C18.26 20.8501 18.4778 20.3225 18.8657 19.9327C19.2536 19.543 19.7801 19.3226 20.33 19.32V19.32ZM11.09 8.32C11.5986 7.49496 11.878 6.5492 11.8994 5.58022C11.9208 4.61123 11.6834 3.65408 11.2116 2.8074C10.7399 1.96073 10.0509 1.25517 9.21569 0.763453C8.38047 0.271736 7.42922 0.0116493 6.46 0.0100002H0V17.64H7.26C8.34131 17.6405 9.39835 17.3194 10.2966 16.7175C11.1949 16.1155 11.8938 15.26 12.3044 14.2596C12.7151 13.2593 12.8189 12.1595 12.6026 11.1C12.3863 10.0405 11.8598 9.06936 11.09 8.31V8.32ZM4.16 4.15H6.46C6.80478 4.15 7.13544 4.28696 7.37924 4.53076C7.62304 4.77456 7.76 5.10522 7.76 5.45C7.76 5.79478 7.62304 6.12544 7.37924 6.36924C7.13544 6.61304 6.80478 6.75 6.46 6.75H4.16V4.15ZM7.27 13.49H4.16V10.89H7.27C7.61478 10.89 7.94544 11.027 8.18924 11.2708C8.43304 11.5146 8.57 11.8452 8.57 12.19C8.57 12.5348 8.43304 12.8654 8.18924 13.1092C7.94544 13.353 7.61478 13.49 7.27 13.49V13.49ZM40 9.4V5.25H37.93V2.08L33.78 2.96V13.71C33.78 16.24 35.35 17.7 37.67 17.81L37.74 17.82H37.78L37.93 17.83H37.99C38.6959 17.8259 39.3899 17.6473 40.01 17.31V14.25C39.7069 14.3319 39.394 14.3723 39.08 14.37C38.25 14.37 37.93 13.65 37.93 12.67V9.41L40 9.4ZM32.16 0L28 0.889999V17.64H32.15L32.16 0Z" fill="black"/>
</svg>
