<svg width="15" height="15" viewBox="0 0 15 15" fill="none" xmlns="http://www.w3.org/2000/svg">
<path fill-rule="evenodd" clip-rule="evenodd" d="M3 0.146894C3.04645 0.100331 3.10162 0.0633877 3.16237 0.0381813C3.22311 0.0129748 3.28823 0 3.354 0C3.41977 0 3.48489 0.0129748 3.54563 0.0381813C3.60638 0.0633877 3.66155 0.100331 3.708 0.146894L6.708 3.14689L6 3.85489L3.854 1.70789V15.0009H2.854V1.70789L0.708 3.85489L0 3.14689L3 0.146894V0.146894ZM14.854 4.00089H8.854V3.00089H14.854V4.00089ZM12.854 8.00089H8.854V7.00089H12.854V8.00089ZM10.854 12.0009H8.854V11.0009H10.854V12.0009Z" fill="black"/>
</svg>
