<svg width="16" height="22" viewBox="0 0 16 22" fill="none" xmlns="http://www.w3.org/2000/svg">
<path d="M6 21H10M4 14H12M1 8C1 6.14348 1.7375 4.36301 3.05025 3.05025C4.36301 1.7375 6.14349 1 8 1C9.85652 1 11.637 1.7375 12.9497 3.05025C14.2625 4.36301 15 6.14348 15 8C15.0007 9.12707 14.7281 10.2375 14.2056 11.2362C13.6831 12.2348 12.9263 13.0919 12 13.734L11.458 16.3C11.3862 16.773 11.1473 17.2046 10.7846 17.5165C10.4219 17.8284 9.95938 17.9999 9.481 18H6.519C6.04062 17.9999 5.57811 17.8284 5.21539 17.5165C4.85267 17.2046 4.61376 16.773 4.542 16.3L4 13.745C3.07341 13.1006 2.31657 12.2415 1.79415 11.2411C1.27173 10.2407 0.999256 9.12862 1 8Z" stroke="white" stroke-width="2" stroke-linecap="round" stroke-linejoin="round"/>
</svg>
