<svg width="15" height="15" viewBox="0 0 15 15" fill="none" xmlns="http://www.w3.org/2000/svg">
<path d="M3.354 14.5L3 14.854C3.04645 14.9006 3.10162 14.9375 3.16237 14.9627C3.22311 14.9879 3.28823 15.0009 3.354 15.0009C3.41977 15.0009 3.48489 14.9879 3.54563 14.9627C3.60638 14.9375 3.66155 14.9006 3.708 14.854L3.354 14.5ZM3.708 14.854L6.708 11.854L6 11.146L3 14.146L3.708 14.854ZM3.708 14.146L0.708 11.146L0 11.854L3 14.854L3.708 14.146ZM2.854 0V14.5H3.854V0H2.854ZM8.854 4H14.854V3H8.854V4ZM8.854 8H12.854V7H8.854V8ZM8.854 12H10.854V11H8.854V12Z" fill="black"/>
</svg>
