<svg width="64" height="64" viewBox="0 0 64 64" fill="none" xmlns="http://www.w3.org/2000/svg">
<path d="M22.1545 30.4155V61.5386C22.1545 61.9583 22.2618 62.3711 22.4663 62.7377C22.6708 63.1043 22.9657 63.4125 23.3228 63.633C23.68 63.8535 24.0876 63.979 24.5069 63.9976C24.9262 64.0162 25.3434 63.9272 25.7186 63.7392L40.4872 56.3547C40.8955 56.1501 41.2389 55.8359 41.4788 55.4472C41.7188 55.0586 41.8459 54.6109 41.8459 54.1541V30.4155L63.4425 4.02335C63.6474 3.77315 63.801 3.48505 63.8946 3.17547C63.9882 2.86589 64.0199 2.54092 63.9879 2.21909C63.9559 1.89726 63.8608 1.58489 63.7081 1.2998C63.5554 1.01472 63.348 0.762506 63.0979 0.557567C62.8477 0.352628 62.5596 0.198975 62.25 0.105381C61.9404 0.0117872 61.6155 -0.019915 61.2936 0.0120849C60.9718 0.0440848 60.6595 0.13916 60.3744 0.291882C60.0893 0.444605 59.8371 0.651983 59.6322 0.902177L37.4793 27.9786C37.1191 28.4189 36.9226 28.9703 36.923 29.5392V52.6329L27.0773 57.5559V29.5392C27.0778 28.9703 26.8812 28.4189 26.5211 27.9786L7.65668 4.92426H46.7687C47.4216 4.92426 48.0476 4.66492 48.5092 4.2033C48.9708 3.74168 49.2302 3.11559 49.2302 2.46276C49.2302 1.80993 48.9708 1.18384 48.5092 0.722225C48.0476 0.260606 47.4216 0.00127012 46.7687 0.00127012H2.46307C1.99677 0.000959028 1.53998 0.13311 1.14588 0.382336C0.751768 0.631562 0.436559 0.98761 0.236944 1.40903C0.0373293 1.83045 -0.0384782 2.2999 0.0183477 2.76274C0.0751736 3.22557 0.262295 3.66274 0.557926 4.02335L22.1545 30.4155Z" fill="black"/>
</svg>
