<svg width="89" height="89" viewBox="0 0 89 89" fill="none" xmlns="http://www.w3.org/2000/svg">
<path opacity="0.5" d="M44.5 0C35.6987 0 27.0951 2.60988 19.7771 7.4996C12.4592 12.3893 6.75548 19.3393 3.38738 27.4706C0.0192811 35.6019 -0.861967 44.5494 0.855075 53.1815C2.57212 61.8137 6.81033 69.7428 13.0338 75.9662C19.2572 82.1897 27.1863 86.4279 35.8185 88.1449C44.4507 89.862 53.3981 88.9807 61.5294 85.6126C69.6607 82.2445 76.6107 76.5408 81.5004 69.2229C86.3901 61.9049 89 53.3013 89 44.5C89 38.6562 87.849 32.8696 85.6126 27.4706C83.3763 22.0716 80.0985 17.166 75.9663 13.0337C71.8341 8.90154 66.9284 5.62369 61.5294 3.38736C56.1304 1.15103 50.3438 0 44.5 0V0ZM44.5 80.1C37.459 80.1 30.5761 78.0121 24.7217 74.1003C18.8673 70.1885 14.3044 64.6286 11.6099 58.1235C8.91543 51.6185 8.21043 44.4605 9.58406 37.5548C10.9577 30.6491 14.3483 24.3057 19.327 19.327C24.3058 14.3482 30.6491 10.9577 37.5548 9.58404C44.4605 8.21041 51.6185 8.91541 58.1235 11.6099C64.6286 14.3044 70.1885 18.8673 74.1003 24.7217C78.0121 30.5761 80.1 37.459 80.1 44.5C80.1 53.9417 76.3493 62.9967 69.673 69.673C62.9967 76.3493 53.9417 80.1 44.5 80.1V80.1Z" fill="#0F0028"/>
<path d="M80.2 45H89C89 39.0905 87.8619 33.2389 85.6507 27.7792C83.4395 22.3196 80.1985 17.3588 76.1127 13.1802C72.0269 9.00156 67.1764 5.68688 61.8381 3.42542C56.4997 1.16396 50.7782 0 45 0V9C54.3356 9 63.2889 12.7928 69.8902 19.5442C76.4914 26.2955 80.2 35.4522 80.2 45Z" fill="#0F0028"/>
</svg>
